<?xml version="1.0" encoding="UTF-8"?>
<!DOCTYPE svg PUBLIC "-//W3C//DTD SVG 1.1//EN" "http://www.w3.org/Graphics/SVG/1.1/DTD/svg11.dtd">
<!-- Creator: CorelDRAW 2019 (64-Bit) -->
<svg xmlns="http://www.w3.org/2000/svg" xml:space="preserve" width="200px" height="200px" version="1.1" style="shape-rendering:geometricPrecision; text-rendering:geometricPrecision; image-rendering:optimizeQuality; fill-rule:evenodd; clip-rule:evenodd"
viewBox="0 0 198.86 198.86"
 xmlns:xlink="http://www.w3.org/1999/xlink">
 <defs>
  <style type="text/css">
   <![CDATA[
    .fil0 {fill:#FEFEFE}
   ]]>
  </style>
 </defs>
 <g id="Слой_x0020_1">
  <metadata id="CorelCorpID_0Corel-Layer"/>
  <g id="_1830300456480">
   <path class="fil0" d="M62.14 99.43c0,-4.12 1.05,-8.58 2.18,-11.81 0.91,-2.61 3.37,-7.94 5.2,-9.17l9.53 9.51c1.23,1.19 2.14,2.22 3.29,3.31l11.89 11.8c0.54,0.53 0.49,0.45 0.97,0.98 0.92,1.02 0.5,0.62 1.56,1.54 0.4,0.35 0.42,0.37 0.79,0.76l1.91 1.98c0.05,0.06 0.13,0.14 0.18,0.2l3.53 3.47c0.77,0.69 0.86,0.8 1.55,1.55l3.47 3.53c0.06,0.05 0.15,0.13 0.21,0.18 0.05,0.05 0.14,0.13 0.2,0.18 0.06,0.06 0.14,0.13 0.2,0.19 0.37,0.35 0.45,0.45 0.77,0.78l4.46 4.47c1.61,1.54 5.98,5.55 6.37,7.23 -1.34,0.36 -2.99,1.67 -4.27,2.34 -10.29,5.4 -21.32,5.46 -31.96,0.88 -8,-3.44 -15.2,-10.64 -18.65,-18.64 -1.71,-3.99 -3.38,-9.76 -3.38,-15.26zm-53.21 -99.43l0.2 0 189.73 189.92c-0.97,1.44 -7.88,8.55 -9.33,8.94 -0.46,-1.74 -2.19,-2.78 -3.39,-3.99l-19.97 -20.03c-1.68,-1.55 -5.45,-0.84 -9.65,-0.84 -38.58,0 -77.16,0 -115.74,0 -6.16,0 -23.54,0.64 -28.22,-0.91 -6.58,-2.2 -12.56,-9.3 -12.56,-16.18l0 -114.96c0,-2.19 0.92,-4.87 1.67,-6.49 1.09,-2.32 1.88,-3.01 3.44,-4.72 0.22,-0.24 0.32,-0.37 0.56,-0.61 0.1,-0.1 0.54,-0.51 0.6,-0.56 2.33,-2.11 6.41,-4.32 9.65,-4.32 -0.44,-1.67 -2.58,-3.17 -3.78,-4.37 -2.57,-2.57 -11.02,-10.66 -12.05,-12.24l8.84 -8.64zm40.78 97.1c0,10.21 0.66,14.63 4.67,23.68 6.92,15.63 25.27,28.36 42.72,28.36 10.76,0 17.88,-1.37 27.02,-6.76 2.07,-1.22 4.61,-3.36 5.99,-3.73 0.3,1.14 0.7,1.08 1.78,2.11l16.63 16.77c1.9,2.02 2.28,1.88 3.73,4.04l-128.56 0c-4.96,0 -11.26,0.6 -11.26,-7.38l0 -109.53c0,-8.82 7.45,-7.37 15.15,-7.37 1.15,0 4.51,3.84 5.59,4.89l11.01 10.74c2.5,2.5 14.93,14.58 16.02,16.21 -0.68,1.29 -1.05,1.6 -1.87,2.79 -0.72,1.06 -1.1,1.71 -1.8,2.87 -1.28,2.12 -2.37,4.23 -3.27,6.43 -1.71,4.19 -3.55,10.11 -3.55,15.88z"/>
   <path class="fil0" d="M50.88 24.86c3.32,2.22 7.99,9.04 10.49,9.71 1.28,-5.53 1.19,-9.71 8.15,-9.71l59.81 0c8.8,0 6.08,7.1 8.83,10.21 2.11,2.39 3.27,2.23 7.49,2.22l28.74 0c5.19,0 12.04,-0.9 12.04,7.37l0 109.92c0,2.14 -0.78,2.6 -1.17,4.27l8.84 9.03c2.08,-3.03 4.76,-6.2 4.76,-10.97l0 -114.96c0,-2.19 -0.92,-4.87 -1.68,-6.49 -1.42,-3.04 -3.34,-4.97 -5.82,-6.99 -2.26,-1.85 -6.17,-3.48 -9.2,-3.62 -10.88,-0.5 -23.15,0.01 -34.18,0.01 -0.42,-5.01 -8.75,-12.43 -15.93,-12.43l-65.25 0c-7.14,0 -14.56,6.59 -15.92,12.43z"/>
   <path class="fil0" d="M80.01 53.6l9.8 10c7.07,-1.57 11,-1.9 18.53,-0.27 5.19,1.12 10.66,4.15 14.27,7.09 8.46,6.89 14.1,17.53 14.1,28.62 0,3.55 -0.88,7.2 -1.55,10.1l10.01 9.8c3.38,-6.26 3.97,-14.31 3.97,-21.84 0,-24.38 -23,-47.39 -47.38,-47.39 -7.54,0 -15.54,0.6 -21.75,3.89z"/>
   <path class="fil0" d="M161.57 55.15c0,9.4 12.43,9.4 12.43,0 0,-2.82 -2.7,-5.44 -6.99,-5.44 -2.43,0 -5.44,3.02 -5.44,5.44z"/>
  </g>
 </g>
</svg>
